<svg xmlns="http://www.w3.org/2000/svg" viewBox="0 0 458.66 416"><defs><style>.a{fill:#ffe3e1}.b{fill:#ffd1d1}.c{fill:#ff9494}.d{fill:#fff5e4}</style></defs><path class="a" d="M117.33 352h64a32 32 0 0 1-64 0zM277.33 352h64a32 32 0 0 1-64 0z"/><path class="b" d="M181.33 129.32V320h-64V214.4A37.345 37.345 0 0 0 80 177.07a48 48 0 0 1-48-48V84.01c0-3.9 0-5.29.06-6.36a48 48 0 0 1 45.59-45.59c1.07-.06 2.43-.06 6.34-.06h.02c6.38 0 8.98 0 11.11.11a90.658 90.658 0 0 1 86.1 86.12c.11 2.11.11 4.71.11 11.09zm-96 4.01V80a16 16 0 0 0-32 0v53.33a16 16 0 1 0 32 0zM426.66 83.99v45.08a48 48 0 0 1-48 48 37.345 37.345 0 0 0-37.33 37.33V320h-64V129.32c0-6.38 0-8.98.11-11.11a90.658 90.658 0 0 1 86.12-86.1c2.11-.11 4.71-.11 11.11-.11q3.18-.03 6.34.06a48 48 0 0 1 45.59 45.59c.06 1.07.06 2.44.06 6.34zm-21.33 49.34V80a16 16 0 0 0-32 0v53.33a16 16 0 1 0 32 0z"/><path class="c" d="M458.66 83.54v45.53a80 80 0 0 1-80 80 5.328 5.328 0 0 0-5.33 5.33V352a64 64 0 0 1-128 0V128.79c0-5.68 0-9.13.15-12.16A122.658 122.658 0 0 1 361.96.15C364.99 0 368.44 0 374.12 0h1c3.27 0 5.51 0 7.47.11a80 80 0 0 1 75.97 75.96c.1 1.97.1 4.21.1 7.47zm-32 45.53V83.99c0-3.9 0-5.27-.06-6.34a48 48 0 0 0-45.59-45.59q-3.165-.09-6.34-.06c-6.4 0-9 0-11.11.11a90.658 90.658 0 0 0-86.12 86.1c-.11 2.13-.11 4.73-.11 11.11V320h64V214.4a37.345 37.345 0 0 1 37.33-37.33 48 48 0 0 0 48-48zM341.33 352h-64a32 32 0 0 0 64 0z"/><path class="d" d="M405.33 80v53.33a16 16 0 1 1-32 0V80a16 16 0 0 1 32 0z"/><path class="c" d="M213.33 128.79V352a64 64 0 0 1-128 0V214.4a5.328 5.328 0 0 0-5.33-5.33 80 80 0 0 1-80-80V83.54c0-3.26 0-5.5.1-7.47A80 80 0 0 1 76.07.11C78.03 0 80.27 0 83.54 0h1c5.68 0 9.13 0 12.16.15a122.658 122.658 0 0 1 116.48 116.48c.15 3.03.15 6.48.15 12.16zm-32 191.21V129.32c0-6.38 0-8.98-.11-11.09a90.658 90.658 0 0 0-86.1-86.12C92.99 32 90.39 32 84.01 32h-.02c-3.91 0-5.27 0-6.34.06a48 48 0 0 0-45.59 45.59C32 78.72 32 80.11 32 84.01v45.06a48 48 0 0 0 48 48 37.345 37.345 0 0 1 37.33 37.33V320zm0 32h-64a32 32 0 0 0 64 0z"/><path class="d" d="M85.33 80v53.33a16 16 0 1 1-32 0V80a16 16 0 0 1 32 0z"/></svg>