<svg id="图层_1" xmlns="http://www.w3.org/2000/svg" viewBox="0 0 512 512"><style>.st3{fill:#aac4ff}</style><g id="XMLID_1_"><circle cx="256" cy="277.3" r="48" fill="#d2daff"/><path d="M451.4 210.3c1.9 18.3 1.9 41.8 1.9 74.8s0 56.5-1.9 74.8c-1.9 18-5.4 29.1-11.3 37.7-5.7 8.4-13.1 15.7-21.7 21.3-8.9 5.9-20.3 9.4-38.7 11.2C361 432 337 432 303.4 432h-94.8c-33.7 0-57.7 0-76.3-1.9-18.4-1.8-29.8-5.4-38.7-11.2-8.6-5.6-16-12.9-21.7-21.3-5.9-8.7-9.5-19.7-11.3-37.7-1.9-18.3-1.9-41.8-1.9-74.8s0-56.6 1.9-74.8c1.9-18 5.4-29 11.3-37.7 5.8-8.5 13.1-15.7 21.7-21.3 11.5-7.6 26.9-11.1 55.7-12.4 21.9-.2 40-16.3 44.2-36.8 2.6-12.7 14-22.1 27.7-22.1h69.7c13.3-.1 24.9 9.1 27.7 22.1 4.2 20.5 22.3 36.6 44.2 36.8 28.8 1.3 44.2 4.8 55.7 12.3 8.6 5.6 15.9 12.9 21.7 21.3 5.8 8.7 9.4 19.8 11.2 37.8zm-30.1 3c0-8.8-7.2-16-16-16H384c-8.8 0-16 7.2-16 16s7.2 16 16 16h21.3c8.9 0 16-7.1 16-16zm-85.3 64c0-44.2-35.8-80-80-80s-80 35.8-80 80 35.8 80 80 80 80-35.8 80-80z" fill="#eef1ff"/><path d="M485.3 284.2v1.8c0 31.9 0 57.1-2.1 77.2-2.1 20.6-6.6 37.6-16.7 52.4-8.1 11.9-18.5 22.1-30.6 30.1-15 9.8-32.2 14.2-53.1 16.3-20.4 2-46.1 2-78.6 2h-96.6c-32.6 0-58.2 0-78.6-2-20.9-2.1-38.1-6.4-53.1-16.3-12.1-7.9-22.5-18.1-30.6-30.1-10.1-14.8-14.5-31.8-16.7-52.4-2.1-20.1-2.1-45.3-2.1-77.2v-1.8c0-31.9 0-57.1 2.1-77.2 2.1-20.6 6.6-37.6 16.7-52.4 8.1-11.9 18.5-22.2 30.6-30.1 19.2-12.6 42.2-16.3 72.1-17.6h.7c6.5-.2 11.9-4.8 13.2-11.2C167.6 67.8 192.5 48 221 48h69.7c28.5 0 53.3 19.8 59.1 47.7 1.3 6.3 6.8 11 13.2 11.2h.7c29.9 1.3 52.9 5 72.1 17.6 12.1 7.9 22.5 18.1 30.6 30.1 10.1 14.8 14.5 31.8 16.7 52.4 2.2 20.1 2.2 45.3 2.2 77.2zm-32 .9c0-33 0-56.6-1.9-74.8-1.9-18-5.4-29-11.3-37.7-5.8-8.5-13.1-15.7-21.7-21.3-11.5-7.5-26.9-11.1-55.7-12.3-21.8-.2-40-16.3-44.2-36.8-2.8-13-14.4-22.2-27.7-22.1h-69.7c-13.6 0-25.1 9.4-27.7 22.1-4.2 20.5-22.3 36.6-44.2 36.8-28.8 1.3-44.2 4.8-55.7 12.4-8.6 5.6-15.9 12.9-21.7 21.3-5.9 8.6-9.4 19.7-11.3 37.7-1.9 18.3-1.9 41.8-1.9 74.8s0 56.5 1.9 74.8c1.8 18 5.4 29.1 11.3 37.7 5.7 8.4 13.1 15.7 21.7 21.3 8.9 5.8 20.3 9.4 38.7 11.2 18.6 1.9 42.7 1.9 76.3 1.9h94.8c33.6 0 57.6 0 76.3-1.9 18.4-1.8 29.8-5.3 38.7-11.2 8.6-5.6 16-12.9 21.7-21.3 5.9-8.6 9.4-19.7 11.3-37.7 2-18.4 2-41.9 2-74.9z" fill="#b1b2ff"/><path class="st3" d="M405.3 197.3c8.8 0 16 7.2 16 16s-7.2 16-16 16H384c-8.8 0-16-7.2-16-16s7.2-16 16-16h21.3zM256 197.3c44.2 0 80 35.8 80 80s-35.8 80-80 80-80-35.8-80-80 35.8-80 80-80zm48 80c0-26.5-21.5-48-48-48s-48 21.5-48 48 21.5 48 48 48 48-21.5 48-48z"/></g></svg>