<svg id="图层_1" xmlns="http://www.w3.org/2000/svg" viewBox="0 0 512 512"><style>.st0{fill:#b3e5be}.st2{fill:#a86464}.st3{fill:#804674}</style><g id="XMLID_1_"><path class="st0" d="M346.1 155.9c.4 1.5.6 3.9.6 14.8 0 11-.1 13.3-.6 14.8-1.5 5.5-5.8 9.8-11.3 11.3-1.5.4-3.9.6-14.8.6H192c-11 0-13.3-.1-14.8-.6-5.5-1.5-9.8-5.8-11.3-11.3-.4-1.5-.6-3.9-.6-14.8 0-11 .1-13.3.6-14.8 1.5-5.5 5.8-9.8 11.3-11.3 1.5-.4 3.9-.6 14.8-.6h128c11 0 13.3.1 14.8.6 5.5 1.4 9.8 5.7 11.3 11.3z"/><path d="M428.6 140.9c3.4 27.9 3.4 64.4 3.4 115.1s0 87.3-3.4 115.1c-3.3 27.6-9.7 44.2-20.6 56.3-10.7 11.9-25 18.6-49 22.2-24.7 3.7-57.2 3.7-103 3.7s-78.3 0-103-3.7c-24-3.6-38.3-10.4-49-22.2-10.9-12.1-17.3-28.7-20.6-56.3C80 343.3 80 306.7 80 256s0-87.3 3.4-115.1c3.3-27.6 9.7-44.2 20.6-56.3 10.7-11.9 25-18.6 49-22.2 24.7-3.7 57.2-3.7 103-3.7s78.3 0 103 3.7c24 3.6 38.3 10.3 49 22.2 10.9 12.1 17.3 28.7 20.6 56.3zM384 330.7c0-9.8-8-17.8-17.8-17.8s-17.8 8-17.8 17.8 8 17.8 17.8 17.8 17.8-8 17.8-17.8zm-5.3-158.2v-3.6c0-8.1 0-15.1-1.7-21.3-4.4-16.6-17.4-29.5-33.9-33.9-6.1-1.6-13.2-1.6-21.3-1.6H190.3c-8.1 0-15.1 0-21.3 1.6-16.6 4.4-29.5 17.4-33.9 33.9-1.6 6.1-1.6 13.2-1.6 21.3v3.6c0 8.1 0 15.1 1.6 21.3 4.4 16.6 17.4 29.5 33.9 33.9 6.1 1.6 13.2 1.6 21.3 1.6h131.5c8.2 0 15.2 0 21.3-1.6 16.6-4.4 29.5-17.4 33.9-33.9 1.7-6.2 1.7-13.2 1.7-21.3zm-30.3 122.6c0-9.8-8-17.8-17.8-17.8s-17.8 8-17.8 17.8 8 17.8 17.8 17.8c9.9 0 17.8-8 17.8-17.8zm0 71.1c0-9.8-8-17.8-17.8-17.8s-17.8 8-17.8 17.8 8 17.8 17.8 17.8c9.9 0 17.8-8 17.8-17.8zm-35.5-35.5c0-9.8-8-17.8-17.8-17.8s-17.8 8-17.8 17.8 8 17.8 17.8 17.8 17.8-8 17.8-17.8zm-83.6 0c0-8.8-7.2-16-16-16h-16v-16c0-8.8-7.2-16-16-16s-16 7.2-16 16v16h-16c-8.8 0-16 7.2-16 16s7.2 16 16 16h16v16c0 8.8 7.2 16 16 16s16-7.2 16-16v-16h16c8.9 0 16-7.2 16-16z" fill="#f5ffc9"/><path class="st2" d="M464 254.9v2.2c0 49.3 0 87.9-3.6 117.8-3.7 30.5-11.4 54.7-28.6 73.8-17.5 19.4-39.8 28.2-68.1 32.5-27.3 4.1-62.3 4.1-106.4 4.1h-2.7c-44.1 0-79 0-106.4-4.1-28.2-4.2-50.6-13.1-68.1-32.5-17.1-19-24.8-43.2-28.4-73.7C48 345 48 306.5 48 257.1v-2.2c0-49.3 0-87.9 3.6-117.8 3.7-30.6 11.4-54.7 28.6-73.8C97.7 43.8 120 35 148.3 30.7c27.3-4.1 62.3-4.1 106.4-4.1h2.6c44.1 0 79.1 0 106.4 4.1 28.2 4.2 50.6 13.1 68.1 32.5 17.2 19.1 24.9 43.3 28.6 73.8 3.6 30 3.6 68.6 3.6 117.9zm-32 1.1c0-50.7 0-87.3-3.4-115.1-3.3-27.6-9.7-44.2-20.6-56.3-10.7-11.9-25-18.6-49-22.2-24.7-3.7-57.2-3.7-103-3.7s-78.3 0-103 3.7c-24 3.6-38.3 10.3-49 22.2-10.9 12.1-17.3 28.7-20.6 56.3C80 168.8 80 205.3 80 256s0 87.3 3.4 115.1c3.3 27.6 9.7 44.2 20.6 56.3 10.7 11.9 25 18.6 49 22.2 24.7 3.7 57.2 3.7 103 3.7s78.3 0 103-3.7c24-3.6 38.3-10.4 49-22.2 10.9-12.1 17.3-28.7 20.6-56.3 3.4-27.8 3.4-64.4 3.4-115.1z"/><circle class="st0" cx="366.2" cy="330.7" r="17.8"/><path class="st2" d="M378.7 168.9v3.6c0 8.1 0 15.1-1.7 21.3-4.4 16.6-17.4 29.5-33.9 33.9-6.2 1.7-13.2 1.7-21.3 1.6H190.2c-8.1 0-15.1 0-21.3-1.6-16.6-4.4-29.5-17.4-33.9-33.9-1.7-6.2-1.6-13.2-1.6-21.3v-3.6c0-8.1 0-15.1 1.6-21.3 4.4-16.6 17.4-29.5 33.9-33.9 6.2-1.7 13.2-1.6 21.3-1.6h131.5c8.1 0 15.1 0 21.3 1.6 16.6 4.4 29.5 17.4 33.9 33.9 1.8 6.2 1.8 13.2 1.8 21.3zm-32 1.8c0-10.9-.1-13.3-.6-14.8-1.5-5.5-5.8-9.8-11.3-11.3-1.5-.4-3.8-.6-14.8-.6H192c-10.9 0-13.3.1-14.8.6-5.5 1.5-9.8 5.8-11.3 11.3-.4 1.5-.6 3.8-.6 14.8 0 10.9.1 13.3.6 14.8 1.5 5.5 5.8 9.8 11.3 11.3 1.5.4 3.8.6 14.8.6h128c10.9 0 13.3-.1 14.8-.6 5.5-1.5 9.8-5.8 11.3-11.3.4-1.5.6-3.9.6-14.8z"/><circle class="st3" cx="330.7" cy="295.1" r="17.8"/><circle class="st3" cx="330.7" cy="366.2" r="17.8"/><path class="st0" d="M295.1 312.9c9.8 0 17.8 8 17.8 17.8s-8 17.8-17.8 17.8-17.8-8-17.8-17.8 8-17.8 17.8-17.8z"/><path class="st3" d="M213.3 314.7c8.8 0 16 7.2 16 16s-7.2 16-16 16h-16v16c0 8.8-7.2 16-16 16s-16-7.2-16-16v-16h-16c-8.8 0-16-7.2-16-16s7.2-16 16-16h16v-16c0-8.8 7.2-16 16-16s16 7.2 16 16v16h16z"/></g></svg>