<svg id="图层_1" xmlns="http://www.w3.org/2000/svg" viewBox="0 0 512 512"><style>.st0{fill:#6c9bcf}.st1{fill:#ebd8b2}.st2{fill:#a5c0dd}</style><g id="XMLID_1_"><path class="st0" d="M426.9 157.3c16.3 28.2 25.4 60 26.4 92.6-38.1-4.6-78.7 2.6-117.4 17.2-6.8-18.4-14.6-36-23.4-51.1-7.6-12.9-16.1-25.2-25.5-36.9 32.1-27.3 58.2-58.9 72.6-91.1 27.9 17.2 51 41 67.3 69.3z"/><path class="st1" d="M344.4 432.4c-51 25.6-110.7 27.9-163.5 6.1 17.4-39.8 58.5-82.5 110-113.9 8.4-5.1 17-9.9 25.8-14.2 5.2 17.3 9.9 34.8 14 52.5 5.3 23 9.9 46.2 13.7 69.5z"/><path class="st2" d="M451.6 282c-2.4 17.7-7.1 35.1-14.2 51.5-13.6 32.1-35.6 60-63.7 80.8-3.5-19.7-7.5-39.2-12-58.7-4.2-18.2-9.5-38.2-15.6-58.2 36.1-13.7 72.8-19.9 105.5-15.4z"/><path class="st1" d="M279.6 60c17.7 2.2 35 6.7 51.5 13.4-11.9 27.3-35 56-64.9 81.4-15.6-17-32-32.7-47-46.1-15.6-14-30-25.8-40.6-34.3 31.7-13.6 66.6-18.5 101-14.4z"/><path class="st2" d="M284.8 232c8 13.8 15.2 30.2 21.6 47.8-11.1 5.3-21.8 11.2-32.2 17.5-53.9 32.8-100.6 79.1-121.9 126.7-27.8-17.2-51-41-67.3-69.3-16.3-28.2-25.4-60-26.4-92.6 59.7 7.2 125.5-14.5 180.4-48.2 7.7-4.8 15.3-9.8 22.7-15.1 8.6 10.5 16.3 21.6 23.1 33.2z"/><path class="st0" d="M240.7 174.5c-6 4.2-12.1 8.2-18.4 12.1-52.2 32.1-111.6 50.2-161.9 43.4 7.5-56.8 39.4-107.5 87.3-138.9 17.2 13.2 33.9 27.1 50.1 41.6 14 12.5 28.9 26.8 42.9 41.8z"/><path d="M454.6 141.3c36.2 62.5 40.7 138.4 12.3 204.8a227.79 227.79 0 0 1-96.2 108.5c-109.7 63.3-250 25.7-313.3-83.9-63.3-109.7-25.8-250 83.9-313.3 42.9-24.9 92.8-35.1 142.1-29.1 71.7 8.6 135.2 50.5 171.2 113zm-17.1 192.2c7-16.5 11.8-33.8 14.2-51.5-32.8-4.5-69.4 1.7-105.5 15.4 6.2 20 11.4 40 15.6 58.2 4.5 19.4 8.5 39 12 58.7 28-20.8 50-48.7 63.7-80.8zm15.8-83.6c-1-32.6-10-64.4-26.4-92.6-16.3-28.3-39.4-52.2-67.3-69.3-14.5 32.2-40.6 63.8-72.6 91.1 9.4 11.6 18 23.9 25.5 36.9 8.8 15.1 16.5 32.7 23.4 51.1 38.6-14.6 79.3-21.8 117.4-17.2zM344.4 432.4c-3.8-23.3-8.4-46.5-13.8-69.5-4.1-17.7-8.8-35.2-14-52.5-8.7 4.3-17.3 9.1-25.8 14.2-51.5 31.3-92.6 74-110 113.9 52.9 21.8 112.6 19.5 163.6-6.1zM331.1 73.5c-16.5-6.8-33.8-11.3-51.5-13.4-34.4-4.2-69.3.8-101.1 14.5 10.6 8.4 25 20.3 40.6 34.3 15 13.4 31.4 29.1 47 46.1 30-25.5 53.1-54.2 65-81.5zm-24.6 206.3c-6.4-17.6-13.7-34-21.6-47.8-6.9-11.6-14.6-22.7-23.1-33.2-7.4 5.3-15 10.3-22.7 15.1-54.8 33.7-120.7 55.4-180.4 48.2 1 32.6 10.1 64.4 26.4 92.6 16.3 28.3 39.4 52.2 67.3 69.3 21.4-47.5 68.1-93.9 121.9-126.7 10.3-6.3 21.1-12.2 32.2-17.5zm-84.2-93.2c6.3-3.9 12.4-7.9 18.4-12.1-14-15-28.8-29.3-42.9-41.9-16.2-14.5-32.9-28.4-50.1-41.6-47.9 31.4-79.8 82.2-87.3 139 50.3 6.8 109.7-11.3 161.9-43.4z" fill="#654e92"/></g></svg>