<svg xmlns="http://www.w3.org/2000/svg" viewBox="0 0 512 512"><path d="M453.3 105.2v239.1c0 14.6-12.1 27.4-28 28.4-20.9 1.3-46.5 3.9-66.8 9.3-25 6.6-53.9 20.5-75.4 32a59.6 59.6 0 0 1-11.2 4.5V126.8c9.6-1.9 19-5.4 27.7-10.5 18.1-10.5 39.4-21.3 56.9-26.6 20.3-6.1 48.5-8.5 72.4-9.4 13.2-.4 24.4 10.4 24.4 24.9z" fill="#e8d5c4"/><path d="M240 127.5v291.1a59.6 59.6 0 0 1-11.2-4.5c-21.5-11.5-50.4-25.4-75.4-32-20.3-5.4-45.9-7.9-66.8-9.3-15.9-1-28-13.8-28-28.4V106.6c0-14.9 11.8-25.9 25.3-25.1 20.6 1.3 43.9 3.7 61.3 8.3 20.5 5.4 45.8 17.3 66.6 28.3 8.9 4.7 18.4 7.8 28.2 9.4z" fill="#fff1dc"/><path d="M485.3 105.3v239.1c0 32.8-26.5 58.3-58 60.3-20.5 1.3-43.5 3.8-60.6 8.3-21.2 5.6-47.4 18-68.5 29.3-26.4 14-58.1 14-84.5 0-21.2-11.3-47.3-23.7-68.5-29.3-17.1-4.5-40.1-7-60.6-8.3-31.4-2-58-27.5-58-60.3V106.6c0-32 26-59 59.3-57 21.1 1.3 47 3.9 67.5 9.3 24.3 6.4 52.2 19.7 73.4 30.9 17.9 9.3 39.4 8.9 56.9-1.2 18.6-10.8 42.5-23.2 63.7-29.6 24.4-7.3 56.1-9.8 80.4-10.7 32.7-1 57.5 25.7 57.5 57zm-32 239.1V105.2c0-14.5-11.2-25.3-24.4-24.9-23.9.8-52.1 3.3-72.4 9.4-17.5 5.3-38.7 16.1-56.9 26.6-8.7 5-18.1 8.5-27.7 10.5v291.8c3.8-1.1 7.6-2.6 11.2-4.5 21.5-11.5 50.4-25.4 75.4-32 20.3-5.4 45.9-7.9 66.8-9.3 15.9-1 28-13.8 28-28.4zM240 418.5v-291c-9.8-1.5-19.3-4.7-28.1-9.3-20.8-11-46.1-22.9-66.6-28.3-17.3-4.6-40.7-7-61.3-8.3-13.5-.8-25.3 10.2-25.3 25.1v237.8c0 14.6 12.1 27.4 28 28.4 20.9 1.3 46.5 3.9 66.8 9.3 25 6.6 53.9 20.5 75.4 32 3.5 1.8 7.3 3.3 11.1 4.3z" fill="#3a98b9"/></svg>