<svg xmlns="http://www.w3.org/2000/svg" viewBox="0 0 128 128"><rect width="128" height="128" style="fill:none;opacity:0"/><path d="M110.23,37.31a53.25,53.25,0,0,1,4.61,43c-1.67-1.13-3.76-2.67-6.12-4.64a95.6,95.6,0,0,1-21-25.33A95,95,0,0,1,76.29,19.45a74.12,74.12,0,0,1-1-7.61A53.24,53.24,0,0,1,110.23,37.31Z" style="fill:#9ea1d4"/><path d="M103.16,82.25a82.11,82.11,0,0,0,8.32,6.17A53.45,53.45,0,0,1,61.4,117.33,81.19,81.19,0,0,0,60.22,107,103.49,103.49,0,0,0,47.75,73.38,103.52,103.52,0,0,0,24.84,45.75a84.54,84.54,0,0,0-8.32-6.17,53.39,53.39,0,0,1,50.07-28.9h0A79.06,79.06,0,0,0,67.78,21,103.43,103.43,0,0,0,80.24,54.62,103.55,103.55,0,0,0,103.16,82.25Z" style="fill:#a8d1d1"/><path d="M51.7,108.55a74.68,74.68,0,0,1,1,7.62A53.39,53.39,0,0,1,13.15,47.74a76.63,76.63,0,0,1,6.12,4.63,95.32,95.32,0,0,1,21,25.34A95.17,95.17,0,0,1,51.7,108.55Z" style="fill:#f1f7b5"/><path d="M75.34,11.84a74.12,74.12,0,0,0,1,7.61A95,95,0,0,0,87.74,50.3a95.6,95.6,0,0,0,21,25.33c2.36,2,4.45,3.51,6.12,4.64a53.37,53.37,0,0,0-39.5-68.43ZM117.73,33A62,62,0,1,1,71.42,2.4,62,62,0,0,1,117.73,33Zm-6.25,55.44a82.11,82.11,0,0,1-8.32-6.17A103.55,103.55,0,0,1,80.24,54.62,103.43,103.43,0,0,1,67.78,21,79.06,79.06,0,0,1,66.6,10.67h0a53.39,53.39,0,0,0-50.07,28.9,84.54,84.54,0,0,1,8.32,6.17A103.52,103.52,0,0,1,47.75,73.38,103.49,103.49,0,0,1,60.22,107a81.19,81.19,0,0,1,1.18,10.29,53.45,53.45,0,0,0,50.08-28.91ZM52.66,116.17a74.68,74.68,0,0,0-1-7.62A95.17,95.17,0,0,0,40.26,77.71a95.32,95.32,0,0,0-21-25.34,76.63,76.63,0,0,0-6.12-4.63,53.39,53.39,0,0,0,39.51,68.43Z" style="fill:#fd8a8a"/></svg>