<svg xmlns="http://www.w3.org/2000/svg" viewBox="0 0 128 128"><rect width="128" height="128" style="fill:none;opacity:0"/><path d="M107.91,65.42v4.26c0,10.85,0,18.55-.84,24.39s-2.36,9-4.92,11.42S96.07,109.34,90,110.1s-14.43.8-26,.8-19.75,0-26-.8c-6.08-.76-9.6-2.21-12.16-4.61s-4.1-5.7-4.92-11.42-.84-13.54-.84-24.39V65.42ZM98.83,86.74V75.37a4.55,4.55,0,0,0-9.09,0V86.74a4.55,4.55,0,0,0,9.09,0Z" style="fill:#c8e4b2"/><path d="M107.91,52.63v4.26H20.09V52.63c0-10.84,0-18.54.84-24.39s2.36-9,4.92-11.41S31.93,13,38,12.21s14.43-.79,26-.79,19.75,0,26,.79c6.08.77,9.6,2.21,12.16,4.62s4.1,5.7,4.92,11.42S107.91,41.79,107.91,52.63ZM98.83,47V35.58a4.55,4.55,0,0,0-9.09,0V47a4.55,4.55,0,0,0,9.09,0Z" style="fill:#ffd9b7"/><path d="M117,52.31V70c0,10.45,0,18.72-.93,25.2-.95,6.67-3,12.06-7.5,16.32A24.32,24.32,0,0,1,98.83,117v3.86a4.41,4.41,0,0,1-4.54,4.26H88.23a4.41,4.41,0,0,1-4.54-4.26v-1.69c-5.5.27-11.9.27-19.35.27h-.68c-7.44,0-13.85,0-19.35-.27v1.69a4.41,4.41,0,0,1-4.54,4.26H33.71a4.41,4.41,0,0,1-4.54-4.26V117a24.32,24.32,0,0,1-9.74-5.47c-4.54-4.26-6.55-9.65-7.5-16.32C11,88.73,11,80.45,11,70V52.31c0-10.45,0-18.72.93-25.2,1-6.66,3-12.06,7.5-16.31s10.28-6.14,17.38-7c6.9-.87,15.72-.87,26.85-.87h.68c11.13,0,20,0,26.85.87,7.1.9,12.85,2.78,17.38,7s6.55,9.65,7.5,16.31C117,33.59,117,41.86,117,52.31Zm-9.09,17.37V65.42H20.09v4.26c0,10.85,0,18.55.84,24.39s2.36,9,4.92,11.42,6.08,3.85,12.16,4.61c6.24.79,14.44.8,26,.8s19.75,0,26-.8,9.61-2.21,12.17-4.61,4.1-5.7,4.92-11.42S107.91,80.53,107.91,69.68Zm0-12.79V52.63c0-10.84,0-18.54-.84-24.38s-2.36-9-4.92-11.42S96.07,13,90,12.21c-6.24-.78-14.44-.79-26-.79s-19.75,0-26,.79-9.61,2.21-12.17,4.62-4.1,5.7-4.92,11.41-.84,13.55-.84,24.39v4.26Z" style="fill:#7eaa92"/><path d="M98.83,75.37V86.74a4.55,4.55,0,0,1-9.09,0V75.37a4.55,4.55,0,0,1,9.09,0Z" style="fill:#9ed2be"/><path d="M98.83,35.58V47a4.55,4.55,0,0,1-9.09,0V35.58a4.55,4.55,0,0,1,9.09,0Z" style="fill:#9ed2be"/></svg>