<svg xmlns="http://www.w3.org/2000/svg" viewBox="0 0 128 128"><rect width="128" height="128" style="fill:none;opacity:0"/><path d="M113.72,46.17V69.41l-5.45-1.82a4.13,4.13,0,0,1-2.83-3.93V50.31a4.15,4.15,0,0,1,4.14-4.14Z" style="fill:#ecee81"/><path d="M80.6,42v73.14H17.13V42c0-7.92,0-13.45.57-17.61s1.54-6.2,3.07-7.73,3.67-2.52,7.72-3.06,9.7-.57,17.62-.57h5.52c7.92,0,13.44,0,17.61.57s6.2,1.54,7.73,3.06,2.52,3.67,3.07,7.73S80.6,34.11,80.6,42Zm-8.27.25v-.49a51.17,51.17,0,0,0-.24-6.36,8.94,8.94,0,0,0-8.34-8.34,53.12,53.12,0,0,0-6.35-.23H40.34a53.55,53.55,0,0,0-6.36.23,9.6,9.6,0,0,0-5.74,2.6,9.48,9.48,0,0,0-2.59,5.74,51.08,51.08,0,0,0-.24,6.36v.49a51.17,51.17,0,0,0,.24,6.36A8.9,8.9,0,0,0,34,57a51.17,51.17,0,0,0,6.36.24H57.4A51.08,51.08,0,0,0,63.75,57a8.92,8.92,0,0,0,8.34-8.33A51.17,51.17,0,0,0,72.33,42.28ZM66.81,91.71a4.14,4.14,0,0,0-4.14-4.14H35.07a4.14,4.14,0,0,0,0,8.28h27.6A4.15,4.15,0,0,0,66.81,91.71Z" style="fill:#8ddfcb"/><path d="M63.88,36.53a46.36,46.36,0,0,1,.17,5.5,46.56,46.56,0,0,1-.17,5.51,3.61,3.61,0,0,1-.23,1v0h0a4.81,4.81,0,0,1-1,.23,49.39,49.39,0,0,1-5.5.16H40.59a49.39,49.39,0,0,1-5.5-.16,4.52,4.52,0,0,1-1-.23h0v0a3.61,3.61,0,0,1-.23-1A46.56,46.56,0,0,1,33.69,42a46.36,46.36,0,0,1,.17-5.5,3.77,3.77,0,0,1,.23-1h0a3.59,3.59,0,0,1,1-.23,48.7,48.7,0,0,1,5.5-.17H57.15a48.7,48.7,0,0,1,5.5.17,3.77,3.77,0,0,1,1,.23h0A3.77,3.77,0,0,1,63.88,36.53Z" style="fill:#edb7ed"/><path d="M122,39.84V100a12.42,12.42,0,0,1-24.84,0V99.6a3.75,3.75,0,0,0-3.74-3.75H88.88v19.32h1.38a4.14,4.14,0,1,1,0,8.27H7.47a4.14,4.14,0,1,1,0-8.27H8.85V41.73c0-7.54,0-13.63.65-18.42.66-5,2.1-9.15,5.41-12.47s7.51-4.75,12.48-5.42c4.78-.64,10.87-.64,18.41-.64h6.13c7.55,0,13.63,0,18.42.64,5,.67,9.15,2.1,12.47,5.42s4.75,7.5,5.42,12.47c.64,4.79.64,10.88.64,18.42V87.57h4.54a12,12,0,0,1,12,12V100a4.14,4.14,0,0,0,8.28,0V78.13l-8.07-2.69a12.41,12.41,0,0,1-8.49-11.78V50.31a12.42,12.42,0,0,1,12.42-12.42h4.1a12.4,12.4,0,0,0-4.09-8.18c-.42-.37-.86-.73-1.31-1.08l-6.8-5.44a4.14,4.14,0,1,1,5.09-6.53l.08.06,6.89,5.52c.68.54,1.14.91,1.58,1.3A20.73,20.73,0,0,1,122,37.79C122,38.37,122,39,122,39.84Zm-8.28,29.57V46.17h-4.14a4.15,4.15,0,0,0-4.14,4.14V63.66a4.13,4.13,0,0,0,2.83,3.93ZM80.6,115.17V42c0-7.92,0-13.45-.56-17.61s-1.55-6.2-3.07-7.73-3.67-2.52-7.73-3.06-9.69-.57-17.61-.57H46.11c-7.92,0-13.45,0-17.62.57s-6.19,1.54-7.72,3.06-2.52,3.67-3.07,7.73-.57,9.69-.57,17.61v73.14Z" style="fill:#82a0d8"/><path d="M72.33,41.79v.49a51.17,51.17,0,0,1-.24,6.36A8.92,8.92,0,0,1,63.75,57a51.08,51.08,0,0,1-6.35.24H40.34A51.17,51.17,0,0,1,34,57a8.9,8.9,0,0,1-8.33-8.33,51.17,51.17,0,0,1-.24-6.36v-.49a51.08,51.08,0,0,1,.24-6.36,9.48,9.48,0,0,1,2.59-5.74A9.6,9.6,0,0,1,34,27.09a53.55,53.55,0,0,1,6.36-.23H57.4a53.12,53.12,0,0,1,6.35.23,8.94,8.94,0,0,1,8.34,8.34A51.17,51.17,0,0,1,72.33,41.79ZM64.05,42a46.36,46.36,0,0,0-.17-5.5,3.77,3.77,0,0,0-.23-1h0a3.77,3.77,0,0,0-1-.23,48.7,48.7,0,0,0-5.5-.17H40.59a48.7,48.7,0,0,0-5.5.17,3.59,3.59,0,0,0-1,.23h0a3.77,3.77,0,0,0-.23,1,46.36,46.36,0,0,0-.17,5.5,46.56,46.56,0,0,0,.17,5.51,3.61,3.61,0,0,0,.23,1v0h0a4.52,4.52,0,0,0,1,.23,49.39,49.39,0,0,0,5.5.16H57.15a49.39,49.39,0,0,0,5.5-.16,4.81,4.81,0,0,0,1-.23h0v0a3.61,3.61,0,0,0,.23-1A46.56,46.56,0,0,0,64.05,42Z" style="fill:#82a0d8"/><path d="M62.67,87.57a4.14,4.14,0,0,1,0,8.28H35.07a4.14,4.14,0,0,1,0-8.28Z" style="fill:#82a0d8"/></svg>