<svg xmlns="http://www.w3.org/2000/svg" viewBox="0 0 128 128"><rect width="128" height="128" style="fill:none;opacity:0"/><path d="M65.55,90.45V102.8l-4.2-2a5.55,5.55,0,0,0-5.54,0l-.05,0-4.19,2V90.45Z" style="fill:#ffd6a5"/><path d="M32,13.35V82.4a16.54,16.54,0,0,0-1.81.38,21.08,21.08,0,0,0-6.58,3.06V41.52c0-8,0-13.63.58-17.84s1.56-6.28,3.1-7.83A10,10,0,0,1,32,13.34Z" style="fill:#ffd6a5"/><path d="M48.41,112.93v2.67A110.28,110.28,0,0,1,35.12,115c-4.11-.56-6.28-1.56-7.83-3.11s-2.55-3.72-3.1-7.83c-.21-1.55-.35-3.29-.43-5.27a12.58,12.58,0,0,1,8.6-8c1.47-.4,3.38-.43,8.85-.43h2v15.7a15.3,15.3,0,0,0,.12,2.27,5.22,5.22,0,0,0,2.48,3.82A5.33,5.33,0,0,0,48.41,112.93Z" style="fill:#cbffa9"/><path d="M67,112.64a5.34,5.34,0,0,0,4.38-.4,5.25,5.25,0,0,0,2.48-3.82,15.3,15.3,0,0,0,.12-2.27V90.45h30.74a109.27,109.27,0,0,1-.57,13.65c-.55,4.11-1.56,6.28-3.11,7.83s-3.71,2.55-7.82,3.11-9.82.57-17.85.57H48.41v-2.67a5.27,5.27,0,0,0,1.75-.29,17.39,17.39,0,0,0,2.11-.89l.14-.06,6.15-2.92,6.14,2.92.14.06A16.68,16.68,0,0,0,67,112.64Z" style="fill:#cbffa9"/><path d="M104.69,41.52V82.06H40.39V12.32c3.39-.15,7.5-.15,12.58-.15H75.33c8,0,13.62,0,17.85.57s6.28,1.56,7.82,3.11,2.56,3.72,3.11,7.82S104.69,33.5,104.69,41.52Z" style="fill:#fffec4"/><path d="M104.68,90.45H73.94v15.7a15.3,15.3,0,0,1-.12,2.27,5.25,5.25,0,0,1-2.48,3.82,5.34,5.34,0,0,1-4.38.4,16.68,16.68,0,0,1-2.12-.89l-.14-.06-6.14-2.92-6.15,2.92-.14.06a17.39,17.39,0,0,1-2.11.89,5.27,5.27,0,0,1-1.75.29,5.33,5.33,0,0,1-2.63-.69,5.22,5.22,0,0,1-2.48-3.82,15.3,15.3,0,0,1-.12-2.27V90.45h-2c-5.47,0-7.38,0-8.85.43a12.58,12.58,0,0,0-8.6,8c.08,2,.22,3.72.43,5.27.55,4.11,1.56,6.28,3.1,7.83S31,114.48,35.12,115a110.28,110.28,0,0,0,13.29.56H75.33c8,0,13.62,0,17.85-.57s6.28-1.57,7.82-3.11,2.56-3.72,3.11-7.83A109.27,109.27,0,0,0,104.68,90.45Zm8.4-49.24V86.56c0,7.65,0,13.81-.65,18.66-.68,5-2.13,9.27-5.49,12.64s-7.61,4.81-12.64,5.49c-4.85.65-11,.65-18.66.65h-23c-7.65,0-13.81,0-18.66-.65-5-.68-9.27-2.12-12.64-5.49s-4.81-7.6-5.48-12.64c-.66-4.85-.66-11-.66-18.66V41.21c0-7.64,0-13.81.66-18.66.67-5,2.12-9.27,5.48-12.63S29,5.11,34,4.43c4.85-.65,11-.65,18.66-.65h23c7.64,0,13.81,0,18.66.65,5,.67,9.27,2.13,12.64,5.49s4.81,7.6,5.49,12.63C113.08,27.4,113.08,33.57,113.08,41.21Zm-8.39,40.85V41.52c0-8,0-13.63-.58-17.85s-1.56-6.27-3.11-7.82-3.71-2.56-7.82-3.11-9.82-.57-17.85-.57H53c-5.08,0-9.19,0-12.58.15V82.06ZM65.55,102.8V90.45h-14v12.36l4.19-2,.05,0a5.55,5.55,0,0,1,5.54,0ZM32,82.4V13.35h0a10,10,0,0,0-4.71,2.51c-1.54,1.55-2.55,3.72-3.1,7.83s-.58,9.81-.58,17.84V85.84a21.08,21.08,0,0,1,6.58-3.06A16.54,16.54,0,0,1,32,82.4Z" style="fill:#ff9b9b"/></svg>