<svg xmlns="http://www.w3.org/2000/svg" viewBox="0 0 128 128"><rect width="128" height="128" style="fill:none;opacity:0"/><path d="M126.29,64.56v.66c0,13.29,0,23.7-1.09,31.83-1.12,8.32-3.46,14.88-8.61,20s-11.71,7.49-20,8.6c-8.12,1.1-18.54,1.1-31.83,1.1h-.66c-13.29,0-23.71,0-31.83-1.1-8.32-1.11-14.88-3.45-20-8.6s-7.49-11.71-8.61-20C2.51,88.92,2.51,78.51,2.51,65.22v-.66c0-13.29,0-23.71,1.09-31.84,1.12-8.31,3.46-14.87,8.61-20s11.71-7.48,20-8.6C40.36,3,50.78,3,64.07,3h.66C78,3,88.44,3,96.56,4.09c8.32,1.12,14.88,3.46,20,8.6s7.49,11.72,8.61,20C126.29,40.85,126.29,51.27,126.29,64.56Zm-8.64.33c0-7.24,0-13.4-.15-18.71H11.3q-.2,9.34-.15,18.71c0,13.69,0,23.52,1,31S15,107.7,18.31,111s7.72,5.16,15.08,6.15,17.32,1,31,1,23.52,0,31-1,11.8-2.88,15.08-6.16,5.16-7.71,6.15-15.07S117.65,78.58,117.65,64.89ZM80.9,37.54H117c-.12-1.28-.24-2.5-.41-3.66-1-7.36-2.86-11.8-6.14-15.08-3.1-3.09-7.22-4.94-13.86-6Zm-10.24,0L87,11.94c-6.11-.3-13.49-.3-22.56-.3H59.83a4.43,4.43,0,0,1-.42.88l-15.93,25Zm-37.42,0L49.68,11.7a143.12,143.12,0,0,0-16.29,1c-7.36,1-11.8,2.88-15.08,6.15s-5.16,7.72-6.15,15.08c-.16,1.16-.29,2.38-.4,3.66Z" style="fill:#3aa6b9"/><path d="M117.5,46.18c.15,5.31.15,11.47.15,18.71,0,13.69,0,23.52-1,31s-2.87,11.79-6.15,15.07-7.72,5.17-15.08,6.16-17.32,1-31,1-23.52,0-31-1S21.6,114.26,18.31,111s-5.16-7.72-6.15-15.08-1-17.32-1-31q-.06-9.36.15-18.71H117.5ZM86,79.28C86,75.65,84,73,81.67,71a79.6,79.6,0,0,0-8.81-6.2l-.58-.38a79.68,79.68,0,0,0-9.34-5.5c-2.71-1.2-6.18-2.07-9.49,0-3.13,2-4.09,5.4-4.48,8.39A97.25,97.25,0,0,0,48.57,79v.64A95.18,95.18,0,0,0,49,91.21c.39,3,1.35,6.4,4.48,8.39,3.31,2.1,6.78,1.24,9.49,0a77,77,0,0,0,9.34-5.5l.58-.38a78.28,78.28,0,0,0,8.81-6.2C84,85.52,86,82.91,86,79.28Z" style="fill:#ff9eaa"/><path d="M117,37.54H80.9L96.63,12.83c6.64,1,10.76,2.88,13.86,6,3.28,3.28,5.16,7.72,6.14,15.08C116.8,35,116.92,36.26,117,37.54Z" style="fill:#ffd0d0"/><path d="M87,11.94l-16.3,25.6H43.48l15.93-25a4.43,4.43,0,0,0,.42-.88H64.4C73.47,11.64,80.85,11.64,87,11.94Z" style="fill:#c1ece4"/><path d="M57.87,92.23h0S57.84,92.24,57.87,92.23ZM81.67,71C84,73,86,75.65,86,79.28s-2,6.24-4.32,8.27a78.28,78.28,0,0,1-8.81,6.2l-.58.38a77,77,0,0,1-9.34,5.5c-2.71,1.21-6.18,2.07-9.49,0-3.13-2-4.09-5.4-4.48-8.39a95.18,95.18,0,0,1-.4-11.61V79A97.25,97.25,0,0,1,49,67.35c.39-3,1.35-6.39,4.48-8.39,3.31-2.1,6.78-1.23,9.49,0a79.68,79.68,0,0,1,9.34,5.5l.58.38A79.6,79.6,0,0,1,81.67,71ZM76,81.08c1.48-1.3,1.41-1.76,1.4-1.8s.08-.49-1.4-1.8a73.9,73.9,0,0,0-8-5.59,76.9,76.9,0,0,0-8.46-5.07,6.9,6.9,0,0,0-1.38-.47h0a6.74,6.74,0,0,0-.52,2.14,95.32,95.32,0,0,0-.33,10.79,95.32,95.32,0,0,0,.33,10.79,6.84,6.84,0,0,0,.52,2.15,6.34,6.34,0,0,0,1.38-.48,76.12,76.12,0,0,0,8.46-5.06A75.9,75.9,0,0,0,76,81.08ZM57.83,66.33s0,0,.09,0Z" style="fill:#3aa6b9"/><path d="M77.35,79.28s.08.5-1.4,1.8a75.9,75.9,0,0,1-8.06,5.6,76.12,76.12,0,0,1-8.46,5.06,6.34,6.34,0,0,1-1.38.48,6.84,6.84,0,0,1-.52-2.15,95.32,95.32,0,0,1-.33-10.79,95.32,95.32,0,0,1,.33-10.79,6.74,6.74,0,0,1,.52-2.14h0a6.9,6.9,0,0,1,1.38.47,76.9,76.9,0,0,1,8.46,5.07,73.9,73.9,0,0,1,8,5.59C77.43,78.79,77.36,79.24,77.35,79.28Z" style="fill:#c1ece4"/><path d="M49.68,11.7,33.24,37.54H11.76c.11-1.28.24-2.5.4-3.66,1-7.36,2.87-11.8,6.15-15.08S26,13.64,33.39,12.65A143.12,143.12,0,0,1,49.68,11.7Z" style="fill:#ffd0d0"/></svg>