<svg xmlns="http://www.w3.org/2000/svg" viewBox="0 0 2688 1024"><defs><style>.a{fill:none;}.b{fill:#efefef;}.c{fill:#c9caca;}</style></defs><rect class="a" width="2688" height="1024"/><path class="b" d="M904.87,906.42H863.36l-6-33.26c-17.41,21.09-42.85,33.26-72.31,33.26H655.13c-59.59,0-99.76-48.67-99.76-120.85V459.5c0-73,40.17-120.85,99.76-120.85h150c59.58,0,99.76,47.86,99.76,120.85V513H849.3v-51.1c0-39.75-20.76-64.89-53.57-64.89H664.5c-32.81,0-53.56,25.14-53.56,64.89V782.32c0,39.74,20.75,65.7,53.56,65.7H795.73c32.81,0,53.57-26,53.57-65.7V676.07H702v-58.4H904.87Z"/><path class="b" d="M1346.76,470.86,1200.13,802.6l-146-331.74V906.42H998.6V338.65h53.56l148,335.8,148-335.8h53.56V906.42h-54.9Z"/><path class="b" d="M1495.39,338.65H1798v58.4H1551V592.52h213.58v58.4H1551V848H1798v58.4H1495.39Z"/><path class="b" d="M2126.1,689.86l81.69,216.56h-60.93l-78.34-214.94H1927.25V906.42h-55.57V338.65H2108c59.59,0,99.77,47.86,99.77,120.85V570.63C2207.79,635.51,2175.65,680.93,2126.1,689.86Zm26.11-227.92c0-39.75-20.75-64.89-53.56-64.89h-171.4v236h171.4c32.81,0,53.56-25.14,53.56-64.89Z"/><path class="b" d="M2537.87,906.42h-150c-59.59,0-99.76-48.67-99.76-120.85V459.5c0-73,40.17-120.85,99.76-120.85h150c59.59,0,99.76,47.86,99.76,120.85V785.57C2637.63,857.75,2597.46,906.42,2537.87,906.42Zm44.19-444.48c0-39.75-20.76-64.89-53.57-64.89H2397.27c-32.81,0-53.57,25.14-53.57,64.89V782.32c0,39.74,20.76,65.7,53.57,65.7h131.22c32.81,0,53.57-26,53.57-65.7Z"/><path class="c" d="M428,958.52c67.82-.15,119.15-.29,119.15-.29,161.45.57,171-91.68,170.06-167.85-.65-54.89,29.63-179.34,82.07-153.12-64.16,22.31-86.6,163.87,32.22,166.38,72,1.52,101.82-118.73,94.56-170.15-11.3-80-76-119-106.7-126.78-109.2-35.14-192.13,21.43-210.87,129.71-7.54,43.52,6.58,60.12,11.71,92.89C626.24,768.13,603,837.92,569.85,859l-.74.46h0c-2.63-29.34-20.69-125.17-94.61-176.09,0,1.29-34.28-66.74-23-85.88h0c73.18-43.05,103.36-107.31,103.36-107.31l-31.8-23.61s17.29-56.63,4.57-86.6c0,0,3.89-207.46-51.86-237.28C460.24,132.3,373.37,227,357.81,262c0,1.29-67.43-22-115.4-2.6-1.3,0-24.63-97.24-123.18-108.91,0,0-51.18,141-41,229.82-19.88,49.18-2.45,86.28-2.45,86.28-.36,0-35.67,19.72-35.67,22.31,0,1.66,30.35,59.76,100.94,102.3h0s-7.58,80.52-27,110.34c0,2.59-72.61,129.66-46.68,213.94,1.3,2.59,7.17,28.52,34.06,42.79-.08.29,22.74.45,58.09.52Z"/></svg>